<?xml version="1.0" encoding="UTF-8" standalone="no"?>
<!-- Created with Inkscape (http://www.inkscape.org/) -->

<svg
   xmlns:dc="http://purl.org/dc/elements/1.1/"
   xmlns:cc="http://creativecommons.org/ns#"
   xmlns:rdf="http://www.w3.org/1999/02/22-rdf-syntax-ns#"
   xmlns:svg="http://www.w3.org/2000/svg"
   xmlns="http://www.w3.org/2000/svg"
   xmlns:sodipodi="http://sodipodi.sourceforge.net/DTD/sodipodi-0.dtd"
   xmlns:inkscape="http://www.inkscape.org/namespaces/inkscape"
   version="1.1"
   id="svg2"
   xml:space="preserve"
   width="672"
   height="672"
   viewBox="0 0 672 672"
   sodipodi:docname="pelvic-floor (copy).svg"
   inkscape:version="0.92.3 (2405546, 2018-03-11)"><metadata
     id="metadata8"><rdf:RDF><cc:Work
         rdf:about=""><dc:format>image/svg+xml</dc:format><dc:type
           rdf:resource="http://purl.org/dc/dcmitype/StillImage" /><dc:title></dc:title></cc:Work></rdf:RDF></metadata><defs
     id="defs6"><clipPath
       clipPathUnits="userSpaceOnUse"
       id="clipPath48"><path
         d="M 59.72,38.63 H 428.16 V 480.12 H 59.72 Z"
         id="path46"
         inkscape:connector-curvature="0" /></clipPath></defs><sodipodi:namedview
     pagecolor="#ffffff"
     bordercolor="#666666"
     borderopacity="1"
     objecttolerance="10"
     gridtolerance="10"
     guidetolerance="10"
     inkscape:pageopacity="0"
     inkscape:pageshadow="2"
     inkscape:window-width="3840"
     inkscape:window-height="2031"
     id="namedview4"
     showgrid="false"
     inkscape:zoom="3.577381"
     inkscape:cx="313.63727"
     inkscape:cy="268.91181"
     inkscape:window-x="0"
     inkscape:window-y="55"
     inkscape:window-maximized="1"
     inkscape:current-layer="g10" /><g
     id="g10"
     inkscape:groupmode="layer"
     inkscape:label="pelvic-floor (copy)"
     transform="matrix(1.3333333,0,0,-1.3333333,0,672)"><g
       id="g12" /><g
       id="g14" /><g
       id="g16" /><g
       id="g18" /><g
       id="g20" /><g
       id="g22" /><g
       id="g24" /><g
       id="g26" /><g
       id="g28" /><g
       id="g30" /><g
       id="g32" /><g
       id="g34" /><g
       id="g36"><path
         d="M 0,0 H 504 V 504 H 0 Z"
         style="fill:#ffffff;fill-opacity:1;fill-rule:nonzero;stroke:#ffffff;stroke-width:1.07000005;stroke-linecap:round;stroke-linejoin:round;stroke-miterlimit:10;stroke-dasharray:none;stroke-opacity:1"
         id="path38"
         inkscape:connector-curvature="0" /></g><g
       id="g40" /><g
       id="g42"><g
         id="g44"
         clip-path="url(#clipPath48)"><path
           d="M 59.72,38.63 H 428.16 V 480.12 H 59.72 Z"
           style="fill:#ffffff;fill-opacity:1;fill-rule:nonzero;stroke:none"
           id="path50"
           inkscape:connector-curvature="0" /><path
           d="M 59.72,39.24 H 428.16"
           style="fill:none;stroke:#ebebeb;stroke-width:0.52999997;stroke-linecap:butt;stroke-linejoin:round;stroke-miterlimit:10;stroke-dasharray:none;stroke-opacity:1"
           id="path52"
           inkscape:connector-curvature="0" /><path
           d="M 59.72,78.16 H 428.16"
           style="fill:none;stroke:#ebebeb;stroke-width:0.52999997;stroke-linecap:butt;stroke-linejoin:round;stroke-miterlimit:10;stroke-dasharray:none;stroke-opacity:1"
           id="path54"
           inkscape:connector-curvature="0" /><path
           d="M 59.72,117.07 H 428.16"
           style="fill:none;stroke:#ebebeb;stroke-width:0.52999997;stroke-linecap:butt;stroke-linejoin:round;stroke-miterlimit:10;stroke-dasharray:none;stroke-opacity:1"
           id="path56"
           inkscape:connector-curvature="0" /><path
           d="M 59.72,155.99 H 428.16"
           style="fill:none;stroke:#ebebeb;stroke-width:0.52999997;stroke-linecap:butt;stroke-linejoin:round;stroke-miterlimit:10;stroke-dasharray:none;stroke-opacity:1"
           id="path58"
           inkscape:connector-curvature="0" /><path
           d="M 59.72,194.9 H 428.16"
           style="fill:none;stroke:#ebebeb;stroke-width:0.52999997;stroke-linecap:butt;stroke-linejoin:round;stroke-miterlimit:10;stroke-dasharray:none;stroke-opacity:1"
           id="path60"
           inkscape:connector-curvature="0" /><path
           d="M 59.72,233.82 H 428.16"
           style="fill:none;stroke:#ebebeb;stroke-width:0.52999997;stroke-linecap:butt;stroke-linejoin:round;stroke-miterlimit:10;stroke-dasharray:none;stroke-opacity:1"
           id="path62"
           inkscape:connector-curvature="0" /><path
           d="M 59.72,272.73 H 428.16"
           style="fill:none;stroke:#ebebeb;stroke-width:0.52999997;stroke-linecap:butt;stroke-linejoin:round;stroke-miterlimit:10;stroke-dasharray:none;stroke-opacity:1"
           id="path64"
           inkscape:connector-curvature="0" /><path
           d="M 59.72,311.65 H 428.16"
           style="fill:none;stroke:#ebebeb;stroke-width:0.52999997;stroke-linecap:butt;stroke-linejoin:round;stroke-miterlimit:10;stroke-dasharray:none;stroke-opacity:1"
           id="path66"
           inkscape:connector-curvature="0" /><path
           d="M 59.72,350.56 H 428.16"
           style="fill:none;stroke:#ebebeb;stroke-width:0.52999997;stroke-linecap:butt;stroke-linejoin:round;stroke-miterlimit:10;stroke-dasharray:none;stroke-opacity:1"
           id="path68"
           inkscape:connector-curvature="0" /><path
           d="M 59.72,389.48 H 428.16"
           style="fill:none;stroke:#ebebeb;stroke-width:0.52999997;stroke-linecap:butt;stroke-linejoin:round;stroke-miterlimit:10;stroke-dasharray:none;stroke-opacity:1"
           id="path70"
           inkscape:connector-curvature="0" /><path
           d="M 59.72,428.39 H 428.16"
           style="fill:none;stroke:#ebebeb;stroke-width:0.52999997;stroke-linecap:butt;stroke-linejoin:round;stroke-miterlimit:10;stroke-dasharray:none;stroke-opacity:1"
           id="path72"
           inkscape:connector-curvature="0" /><path
           d="M 59.72,467.31 H 428.16"
           style="fill:none;stroke:#ebebeb;stroke-width:0.52999997;stroke-linecap:butt;stroke-linejoin:round;stroke-miterlimit:10;stroke-dasharray:none;stroke-opacity:1"
           id="path74"
           inkscape:connector-curvature="0" /><path
           d="m 118.33,38.63 v 441.5"
           style="fill:none;stroke:#ebebeb;stroke-width:0.52999997;stroke-linecap:butt;stroke-linejoin:round;stroke-miterlimit:10;stroke-dasharray:none;stroke-opacity:1"
           id="path76"
           inkscape:connector-curvature="0" /><path
           d="m 202.07,38.63 v 441.5"
           style="fill:none;stroke:#ebebeb;stroke-width:0.52999997;stroke-linecap:butt;stroke-linejoin:round;stroke-miterlimit:10;stroke-dasharray:none;stroke-opacity:1"
           id="path78"
           inkscape:connector-curvature="0" /><path
           d="m 285.81,38.63 v 441.5"
           style="fill:none;stroke:#ebebeb;stroke-width:0.52999997;stroke-linecap:butt;stroke-linejoin:round;stroke-miterlimit:10;stroke-dasharray:none;stroke-opacity:1"
           id="path80"
           inkscape:connector-curvature="0" /><path
           d="m 369.54,38.63 v 441.5"
           style="fill:none;stroke:#ebebeb;stroke-width:0.52999997;stroke-linecap:butt;stroke-linejoin:round;stroke-miterlimit:10;stroke-dasharray:none;stroke-opacity:1"
           id="path82"
           inkscape:connector-curvature="0" /><path
           d="M 59.72,58.7 H 428.16"
           style="fill:none;stroke:#ebebeb;stroke-width:1.07000005;stroke-linecap:butt;stroke-linejoin:round;stroke-miterlimit:10;stroke-dasharray:none;stroke-opacity:1"
           id="path84"
           inkscape:connector-curvature="0" /><path
           d="M 59.72,97.62 H 428.16"
           style="fill:none;stroke:#ebebeb;stroke-width:1.07000005;stroke-linecap:butt;stroke-linejoin:round;stroke-miterlimit:10;stroke-dasharray:none;stroke-opacity:1"
           id="path86"
           inkscape:connector-curvature="0" /><path
           d="M 59.72,136.53 H 428.16"
           style="fill:none;stroke:#ebebeb;stroke-width:1.07000005;stroke-linecap:butt;stroke-linejoin:round;stroke-miterlimit:10;stroke-dasharray:none;stroke-opacity:1"
           id="path88"
           inkscape:connector-curvature="0" /><path
           d="M 59.72,175.45 H 428.16"
           style="fill:none;stroke:#ebebeb;stroke-width:1.07000005;stroke-linecap:butt;stroke-linejoin:round;stroke-miterlimit:10;stroke-dasharray:none;stroke-opacity:1"
           id="path90"
           inkscape:connector-curvature="0" /><path
           d="M 59.72,214.36 H 428.16"
           style="fill:none;stroke:#ebebeb;stroke-width:1.07000005;stroke-linecap:butt;stroke-linejoin:round;stroke-miterlimit:10;stroke-dasharray:none;stroke-opacity:1"
           id="path92"
           inkscape:connector-curvature="0" /><path
           d="M 59.72,253.28 H 428.16"
           style="fill:none;stroke:#ebebeb;stroke-width:1.07000005;stroke-linecap:butt;stroke-linejoin:round;stroke-miterlimit:10;stroke-dasharray:none;stroke-opacity:1"
           id="path94"
           inkscape:connector-curvature="0" /><path
           d="M 59.72,292.19 H 428.16"
           style="fill:none;stroke:#ebebeb;stroke-width:1.07000005;stroke-linecap:butt;stroke-linejoin:round;stroke-miterlimit:10;stroke-dasharray:none;stroke-opacity:1"
           id="path96"
           inkscape:connector-curvature="0" /><path
           d="M 59.72,331.11 H 428.16"
           style="fill:none;stroke:#ebebeb;stroke-width:1.07000005;stroke-linecap:butt;stroke-linejoin:round;stroke-miterlimit:10;stroke-dasharray:none;stroke-opacity:1"
           id="path98"
           inkscape:connector-curvature="0" /><path
           d="M 59.72,370.02 H 428.16"
           style="fill:none;stroke:#ebebeb;stroke-width:1.07000005;stroke-linecap:butt;stroke-linejoin:round;stroke-miterlimit:10;stroke-dasharray:none;stroke-opacity:1"
           id="path100"
           inkscape:connector-curvature="0" /><path
           d="M 59.72,408.94 H 428.16"
           style="fill:none;stroke:#ebebeb;stroke-width:1.07000005;stroke-linecap:butt;stroke-linejoin:round;stroke-miterlimit:10;stroke-dasharray:none;stroke-opacity:1"
           id="path102"
           inkscape:connector-curvature="0" /><path
           d="M 59.72,447.85 H 428.16"
           style="fill:none;stroke:#ebebeb;stroke-width:1.07000005;stroke-linecap:butt;stroke-linejoin:round;stroke-miterlimit:10;stroke-dasharray:none;stroke-opacity:1"
           id="path104"
           inkscape:connector-curvature="0" /><path
           d="m 76.47,38.63 v 441.5"
           style="fill:none;stroke:#ebebeb;stroke-width:1.07000005;stroke-linecap:butt;stroke-linejoin:round;stroke-miterlimit:10;stroke-dasharray:none;stroke-opacity:1"
           id="path106"
           inkscape:connector-curvature="0" /><path
           d="m 160.2,38.63 v 441.5"
           style="fill:none;stroke:#ebebeb;stroke-width:1.07000005;stroke-linecap:butt;stroke-linejoin:round;stroke-miterlimit:10;stroke-dasharray:none;stroke-opacity:1"
           id="path108"
           inkscape:connector-curvature="0" /><path
           d="m 243.94,38.63 v 441.5"
           style="fill:none;stroke:#ebebeb;stroke-width:1.07000005;stroke-linecap:butt;stroke-linejoin:round;stroke-miterlimit:10;stroke-dasharray:none;stroke-opacity:1"
           id="path110"
           inkscape:connector-curvature="0" /><path
           d="m 327.67,38.63 v 441.5"
           style="fill:none;stroke:#ebebeb;stroke-width:1.07000005;stroke-linecap:butt;stroke-linejoin:round;stroke-miterlimit:10;stroke-dasharray:none;stroke-opacity:1"
           id="path112"
           inkscape:connector-curvature="0" /><path
           d="m 411.41,38.63 v 441.5"
           style="fill:none;stroke:#ebebeb;stroke-width:1.07000005;stroke-linecap:butt;stroke-linejoin:round;stroke-miterlimit:10;stroke-dasharray:none;stroke-opacity:1"
           id="path114"
           inkscape:connector-curvature="0" /><path
           d="m 76.47,58.7 3.35,1.38 3.34,1.42 3.35,1.44 3.35,1.49 3.35,1.52 3.35,1.56 3.35,1.59 3.35,1.63 3.35,1.67 3.35,1.71 3.35,1.75 3.35,1.79 3.35,1.83 3.35,1.87 3.35,1.91 3.35,1.95 3.35,1.99 3.35,2.04 3.35,2.08 3.34,2.13 3.35,2.17 3.35,2.22 3.35,2.26 3.35,2.31 3.35,2.35 3.35,2.41 3.35,2.45 3.35,2.5 3.35,2.55 3.35,2.6 3.35,2.65 3.35,2.7 3.35,2.75 3.35,2.81 3.35,2.85 3.35,2.91 3.35,2.97 3.34,3.02 3.35,3.07 3.35,3.13 3.35,3.19 3.35,3.25 3.35,3.3 3.35,3.36 3.35,3.42 3.35,3.47 3.35,3.54 3.35,3.6 3.35,3.66 3.35,3.72 3.35,3.79 3.35,3.85 3.35,3.91 3.35,3.97 3.35,4.04 3.35,4.11 3.34,4.17 3.35,4.24 3.35,4.31 3.35,4.38 3.35,4.44 3.35,4.52 3.35,4.58 3.35,4.66 3.35,4.73 3.35,4.8 3.35,4.87 3.35,4.94 3.35,5.02 3.35,5.1 3.35,5.17 3.35,5.24 3.35,5.33 3.35,5.4 3.34,5.48 3.35,5.55 3.35,5.64 3.35,5.72 3.35,5.8 3.35,5.88 3.35,5.96 3.35,6.04 3.35,6.13 3.35,6.21 3.35,6.3 3.35,6.38 3.35,6.47 3.35,6.56 3.35,6.64 3.35,6.74 3.35,6.82 3.35,6.91 3.34,7 3.35,7.1 3.35,7.18 3.35,7.28 3.35,7.38 3.35,7.46 3.35,7.56 3.35,7.66"
           style="fill:none;stroke:#01ff00;stroke-width:2.13000011;stroke-linecap:butt;stroke-linejoin:round;stroke-miterlimit:1;stroke-dasharray:8.54, 8.54;stroke-dashoffset:0;stroke-opacity:1"
           id="path116"
           inkscape:connector-curvature="0" /><path
           d="m 76.47,58.7 3.35,1.18 3.34,1.2 3.35,1.23 3.35,1.25 3.35,1.28 3.35,1.3 3.35,1.32 3.35,1.35 3.35,1.37 3.35,1.4 3.35,1.43 3.35,1.45 3.35,1.48 3.35,1.5 3.35,1.53 3.35,1.56 3.35,1.58 3.35,1.62 3.35,1.64 3.34,1.66 3.35,1.7 3.35,1.72 3.35,1.75 3.35,1.78 3.35,1.81 3.35,1.84 3.35,1.87 3.35,1.9 3.35,1.93 3.35,1.95 3.35,1.99 3.35,2.02 3.35,2.05 3.35,2.08 3.35,2.11 3.35,2.15 3.35,2.17 3.34,2.21 3.35,2.24 3.35,2.27 3.35,2.3 3.35,2.34 3.35,2.37 3.35,2.41 3.35,2.43 3.35,2.48 3.35,2.5 3.35,2.54 3.35,2.58 3.35,2.61 3.35,2.64 3.35,2.68 3.35,2.71 3.35,2.75 3.35,2.79 3.35,2.82 3.34,2.86 3.35,2.9 3.35,2.93 3.35,2.97 3.35,3.01 3.35,3.05 3.35,3.08 3.35,3.12 3.35,3.16 3.35,3.2 3.35,3.23 3.35,3.28 3.35,3.31 3.35,3.36 3.35,3.39 3.35,3.43 3.35,3.48 3.35,3.51 3.34,3.56 3.35,3.59 3.35,3.64 3.35,3.68 3.35,3.72 3.35,3.76 3.35,3.8 3.35,3.85 3.35,3.89 3.35,3.93 3.35,3.97 3.35,4.02 3.35,4.06 3.35,4.1 3.35,4.15 3.35,4.19 3.35,4.24 3.35,4.28 3.34,4.33 3.35,4.37 3.35,4.42 3.35,4.46 3.35,4.51 3.35,4.55 3.35,4.6 3.35,4.65"
           style="fill:none;stroke:#0000ff;stroke-width:2.13000011;stroke-linecap:butt;stroke-linejoin:round;stroke-miterlimit:1;stroke-dasharray:2.13, 6.4, 8.54, 6.4;stroke-dashoffset:0;stroke-opacity:1"
           id="path118"
           inkscape:connector-curvature="0" /><path
           d="m 76.47,58.7 3.35,0.98 3.34,1 3.35,1.01 3.35,1.02 3.35,1.04 3.35,1.05 3.35,1.07 3.35,1.09 3.35,1.1 3.35,1.11 3.35,1.13 3.35,1.15 3.35,1.16 3.35,1.18 3.35,1.19 3.35,1.21 3.35,1.22 3.35,1.24 3.35,1.25 3.34,1.27 3.35,1.29 3.35,1.3 3.35,1.32 3.35,1.34 3.35,1.35 3.35,1.37 3.35,1.38 3.35,1.4 3.35,1.42 3.35,1.43 3.35,1.45 3.35,1.47 3.35,1.48 3.35,1.5 3.35,1.52 3.35,1.54 3.35,1.55 3.34,1.57 3.35,1.58 3.35,1.61 3.35,1.62 3.35,1.63 3.35,1.66 3.35,1.67 3.35,1.69 3.35,1.71 3.35,1.72 3.35,1.75 3.35,1.76 3.35,1.77 3.35,1.8 3.35,1.81 3.35,1.84 3.35,1.85 3.35,1.87 3.35,1.88 3.34,1.91 3.35,1.92 3.35,1.94 3.35,1.96 3.35,1.98 3.35,2 3.35,2.01 3.35,2.03 3.35,2.06 3.35,2.07 3.35,2.09 3.35,2.11 3.35,2.13 3.35,2.14 3.35,2.17 3.35,2.18 3.35,2.21 3.35,2.22 3.34,2.24 3.35,2.27 3.35,2.28 3.35,2.3 3.35,2.32 3.35,2.34 3.35,2.36 3.35,2.38 3.35,2.39 3.35,2.42 3.35,2.44 3.35,2.46 3.35,2.48 3.35,2.49 3.35,2.52 3.35,2.54 3.35,2.56 3.35,2.58 3.34,2.59 3.35,2.62 3.35,2.64 3.35,2.66 3.35,2.68 3.35,2.7 3.35,2.72 3.35,2.74"
           style="fill:none;stroke:#ffa500;stroke-width:1.07000005;stroke-linecap:butt;stroke-linejoin:round;stroke-miterlimit:1;stroke-dasharray:none;stroke-opacity:1"
           id="path120"
           inkscape:connector-curvature="0" /><path
           d="m 76.47,58.7 3.35,0.78 3.34,0.79 3.35,0.8 3.35,0.81 3.35,0.81 3.35,0.82 3.35,0.83 3.35,0.84 3.35,0.84 3.35,0.85 3.35,0.86 3.35,0.87 3.35,0.88 3.35,0.88 3.35,0.89 3.35,0.9 3.35,0.91 3.35,0.91 3.35,0.92 3.34,0.93 3.35,0.94 3.35,0.95 3.35,0.95 3.35,0.96 3.35,0.97 3.35,0.98 3.35,0.98 3.35,1 3.35,1 3.35,1 3.35,1.02 3.35,1.02 3.35,1.03 3.35,1.04 3.35,1.05 3.35,1.05 3.35,1.07 3.34,1.07 3.35,1.07 3.35,1.09 3.35,1.09 3.35,1.11 3.35,1.1 3.35,1.12 3.35,1.13 3.35,1.13 3.35,1.14 3.35,1.15 3.35,1.15 3.35,1.17 3.35,1.17 3.35,1.18 3.35,1.18 3.35,1.2 3.35,1.2 3.35,1.21 3.34,1.22 3.35,1.22 3.35,1.24 3.35,1.24 3.35,1.25 3.35,1.26 3.35,1.26 3.35,1.27 3.35,1.28 3.35,1.29 3.35,1.3 3.35,1.3 3.35,1.31 3.35,1.32 3.35,1.33 3.35,1.33 3.35,1.35 3.35,1.35 3.34,1.35 3.35,1.37 3.35,1.37 3.35,1.39 3.35,1.38 3.35,1.4 3.35,1.41 3.35,1.41 3.35,1.42 3.35,1.43 3.35,1.43 3.35,1.45 3.35,1.45 3.35,1.46 3.35,1.47 3.35,1.47 3.35,1.48 3.35,1.49 3.34,1.5 3.35,1.51 3.35,1.51 3.35,1.52 3.35,1.53 3.35,1.54 3.35,1.54 3.35,1.56"
           style="fill:none;stroke:#ff0000;stroke-width:2.13000011;stroke-linecap:butt;stroke-linejoin:round;stroke-miterlimit:1;stroke-dasharray:14.94, 6.4;stroke-dashoffset:0;stroke-opacity:1"
           id="path122"
           inkscape:connector-curvature="0" /><path
           d="m 76.47,58.7 3.35,0.39 3.34,0.39 3.35,0.39 3.35,0.39 3.35,0.39 3.35,0.39 3.35,0.39 3.35,0.39 3.35,0.38 3.35,0.39 3.35,0.39 3.35,0.39 3.35,0.39 3.35,0.39 3.35,0.39 3.35,0.39 3.35,0.39 3.35,0.39 3.35,0.39 3.34,0.39 3.35,0.38 3.35,0.39 3.35,0.39 3.35,0.39 3.35,0.39 3.35,0.39 3.35,0.39 3.35,0.39 3.35,0.39 3.35,0.39 3.35,0.39 3.35,0.39 3.35,0.38 3.35,0.39 3.35,0.39 3.35,0.39 3.35,0.39 3.34,0.39 3.35,0.39 3.35,0.39 3.35,0.39 3.35,0.39 3.35,0.39 3.35,0.38 3.35,0.39 3.35,0.39 3.35,0.39 3.35,0.39 3.35,0.39 3.35,0.39 3.35,0.39 3.35,0.39 3.35,0.39 3.35,0.39 3.35,0.39 3.35,0.38 3.34,0.39 3.35,0.39 3.35,0.39 3.35,0.39 3.35,0.39 3.35,0.39 3.35,0.39 3.35,0.39 3.35,0.39 3.35,0.39 3.35,0.39 3.35,0.38 3.35,0.39 3.35,0.39 3.35,0.39 3.35,0.39 3.35,0.39 3.35,0.39 3.34,0.39 3.35,0.39 3.35,0.39 3.35,0.39 3.35,0.39 3.35,0.38 3.35,0.39 3.35,0.39 3.35,0.39 3.35,0.39 3.35,0.39 3.35,0.39 3.35,0.39 3.35,0.39 3.35,0.39 3.35,0.39 3.35,0.38 3.35,0.39 3.34,0.39 3.35,0.39 3.35,0.39 3.35,0.39 3.35,0.39 3.35,0.39 3.35,0.39 3.35,0.39"
           style="fill:none;stroke:#000000;stroke-width:1.07000005;stroke-linecap:butt;stroke-linejoin:round;stroke-miterlimit:1;stroke-dasharray:4.27, 4.27;stroke-dashoffset:0;stroke-opacity:1"
           id="path124"
           inkscape:connector-curvature="0" /><path
           d="M 59.72,38.63 H 428.16 V 480.12 H 59.72 Z"
           style="fill:none;stroke:#333333;stroke-width:1.07000005;stroke-linecap:round;stroke-linejoin:round;stroke-miterlimit:10;stroke-dasharray:none;stroke-opacity:1"
           id="path126"
           inkscape:connector-curvature="0" /></g></g><g
       id="g128" /><g
       id="g130" /><g
       id="g132" /><g
       id="g134" /><g
       id="g136" /><g
       id="g138" /><g
       id="g140" /><g
       id="g142" /><g
       id="g144" /><g
       id="g146" /><g
       id="g148" /><g
       id="g150" /><g
       id="g152" /><g
       id="g154" /><g
       id="g156" /><g
       id="g158"><text
         transform="matrix(1,0,0,-1,47,53.68)"
         style="font-variant:normal;font-weight:normal;font-size:14px;font-family:Helvetica;-inkscape-font-specification:Helvetica;writing-mode:lr-tb;fill:#4d4d4d;fill-opacity:1;fill-rule:nonzero;stroke:none"
         id="text162"><tspan
           x="0"
           y="0"
           id="tspan160">0</tspan></text>
<text
         transform="matrix(1,0,0,-1,31.43,92.59)"
         style="font-variant:normal;font-weight:normal;font-size:14px;font-family:Helvetica;-inkscape-font-specification:Helvetica;writing-mode:lr-tb;fill:#4d4d4d;fill-opacity:1;fill-rule:nonzero;stroke:none"
         id="text166"><tspan
           x="0 7.7839999 15.568"
           y="0"
           sodipodi:role="line"
           id="tspan164">100</tspan></text>
<text
         transform="matrix(1,0,0,-1,31.43,131.51)"
         style="font-variant:normal;font-weight:normal;font-size:14px;font-family:Helvetica;-inkscape-font-specification:Helvetica;writing-mode:lr-tb;fill:#4d4d4d;fill-opacity:1;fill-rule:nonzero;stroke:none"
         id="text170"><tspan
           x="0 7.7839999 15.568"
           y="0"
           sodipodi:role="line"
           id="tspan168">200</tspan></text>
<text
         transform="matrix(1,0,0,-1,31.43,170.42)"
         style="font-variant:normal;font-weight:normal;font-size:14px;font-family:Helvetica;-inkscape-font-specification:Helvetica;writing-mode:lr-tb;fill:#4d4d4d;fill-opacity:1;fill-rule:nonzero;stroke:none"
         id="text174"><tspan
           x="0 7.7839999 15.568"
           y="0"
           sodipodi:role="line"
           id="tspan172">300</tspan></text>
<text
         transform="matrix(1,0,0,-1,31.43,209.34)"
         style="font-variant:normal;font-weight:normal;font-size:14px;font-family:Helvetica;-inkscape-font-specification:Helvetica;writing-mode:lr-tb;fill:#4d4d4d;fill-opacity:1;fill-rule:nonzero;stroke:none"
         id="text178"><tspan
           x="0 7.7839999 15.568"
           y="0"
           sodipodi:role="line"
           id="tspan176">400</tspan></text>
<text
         transform="matrix(1,0,0,-1,31.43,248.25)"
         style="font-variant:normal;font-weight:normal;font-size:14px;font-family:Helvetica;-inkscape-font-specification:Helvetica;writing-mode:lr-tb;fill:#4d4d4d;fill-opacity:1;fill-rule:nonzero;stroke:none"
         id="text182"><tspan
           x="0 7.7839999 15.568"
           y="0"
           sodipodi:role="line"
           id="tspan180">500</tspan></text>
<text
         transform="matrix(1,0,0,-1,31.43,287.17)"
         style="font-variant:normal;font-weight:normal;font-size:14px;font-family:Helvetica;-inkscape-font-specification:Helvetica;writing-mode:lr-tb;fill:#4d4d4d;fill-opacity:1;fill-rule:nonzero;stroke:none"
         id="text186"><tspan
           x="0 7.7839999 15.568"
           y="0"
           sodipodi:role="line"
           id="tspan184">600</tspan></text>
<text
         transform="matrix(1,0,0,-1,31.43,326.08)"
         style="font-variant:normal;font-weight:normal;font-size:14px;font-family:Helvetica;-inkscape-font-specification:Helvetica;writing-mode:lr-tb;fill:#4d4d4d;fill-opacity:1;fill-rule:nonzero;stroke:none"
         id="text190"><tspan
           x="0 7.7839999 15.568"
           y="0"
           sodipodi:role="line"
           id="tspan188">700</tspan></text>
<text
         transform="matrix(1,0,0,-1,31.43,365)"
         style="font-variant:normal;font-weight:normal;font-size:14px;font-family:Helvetica;-inkscape-font-specification:Helvetica;writing-mode:lr-tb;fill:#4d4d4d;fill-opacity:1;fill-rule:nonzero;stroke:none"
         id="text194"><tspan
           x="0 7.7839999 15.568"
           y="0"
           sodipodi:role="line"
           id="tspan192">800</tspan></text>
<text
         transform="matrix(1,0,0,-1,31.43,403.91)"
         style="font-variant:normal;font-weight:normal;font-size:14px;font-family:Helvetica;-inkscape-font-specification:Helvetica;writing-mode:lr-tb;fill:#4d4d4d;fill-opacity:1;fill-rule:nonzero;stroke:none"
         id="text198"><tspan
           x="0 7.7839999 15.568"
           y="0"
           sodipodi:role="line"
           id="tspan196">900</tspan></text>
<text
         transform="matrix(1,0,0,-1,23.65,442.83)"
         style="font-variant:normal;font-weight:normal;font-size:14px;font-family:Helvetica;-inkscape-font-specification:Helvetica;writing-mode:lr-tb;fill:#4d4d4d;fill-opacity:1;fill-rule:nonzero;stroke:none"
         id="text202"><tspan
           x="0 7.7839999 15.568 23.351999"
           y="0"
           sodipodi:role="line"
           id="tspan200">1000</tspan></text>
</g><g
       id="g204" /><g
       id="g206"><path
         d="m 56.98,58.7 h 2.74"
         style="fill:none;stroke:#333333;stroke-width:1.07000005;stroke-linecap:butt;stroke-linejoin:round;stroke-miterlimit:10;stroke-dasharray:none;stroke-opacity:1"
         id="path208"
         inkscape:connector-curvature="0" /><path
         d="m 56.98,97.62 h 2.74"
         style="fill:none;stroke:#333333;stroke-width:1.07000005;stroke-linecap:butt;stroke-linejoin:round;stroke-miterlimit:10;stroke-dasharray:none;stroke-opacity:1"
         id="path210"
         inkscape:connector-curvature="0" /><path
         d="m 56.98,136.53 h 2.74"
         style="fill:none;stroke:#333333;stroke-width:1.07000005;stroke-linecap:butt;stroke-linejoin:round;stroke-miterlimit:10;stroke-dasharray:none;stroke-opacity:1"
         id="path212"
         inkscape:connector-curvature="0" /><path
         d="m 56.98,175.45 h 2.74"
         style="fill:none;stroke:#333333;stroke-width:1.07000005;stroke-linecap:butt;stroke-linejoin:round;stroke-miterlimit:10;stroke-dasharray:none;stroke-opacity:1"
         id="path214"
         inkscape:connector-curvature="0" /><path
         d="m 56.98,214.36 h 2.74"
         style="fill:none;stroke:#333333;stroke-width:1.07000005;stroke-linecap:butt;stroke-linejoin:round;stroke-miterlimit:10;stroke-dasharray:none;stroke-opacity:1"
         id="path216"
         inkscape:connector-curvature="0" /><path
         d="m 56.98,253.28 h 2.74"
         style="fill:none;stroke:#333333;stroke-width:1.07000005;stroke-linecap:butt;stroke-linejoin:round;stroke-miterlimit:10;stroke-dasharray:none;stroke-opacity:1"
         id="path218"
         inkscape:connector-curvature="0" /><path
         d="m 56.98,292.19 h 2.74"
         style="fill:none;stroke:#333333;stroke-width:1.07000005;stroke-linecap:butt;stroke-linejoin:round;stroke-miterlimit:10;stroke-dasharray:none;stroke-opacity:1"
         id="path220"
         inkscape:connector-curvature="0" /><path
         d="m 56.98,331.11 h 2.74"
         style="fill:none;stroke:#333333;stroke-width:1.07000005;stroke-linecap:butt;stroke-linejoin:round;stroke-miterlimit:10;stroke-dasharray:none;stroke-opacity:1"
         id="path222"
         inkscape:connector-curvature="0" /><path
         d="m 56.98,370.02 h 2.74"
         style="fill:none;stroke:#333333;stroke-width:1.07000005;stroke-linecap:butt;stroke-linejoin:round;stroke-miterlimit:10;stroke-dasharray:none;stroke-opacity:1"
         id="path224"
         inkscape:connector-curvature="0" /><path
         d="m 56.98,408.94 h 2.74"
         style="fill:none;stroke:#333333;stroke-width:1.07000005;stroke-linecap:butt;stroke-linejoin:round;stroke-miterlimit:10;stroke-dasharray:none;stroke-opacity:1"
         id="path226"
         inkscape:connector-curvature="0" /><path
         d="m 56.98,447.85 h 2.74"
         style="fill:none;stroke:#333333;stroke-width:1.07000005;stroke-linecap:butt;stroke-linejoin:round;stroke-miterlimit:10;stroke-dasharray:none;stroke-opacity:1"
         id="path228"
         inkscape:connector-curvature="0" /></g><g
       id="g230" /><g
       id="g232" /><g
       id="g234" /><g
       id="g236" /><g
       id="g238" /><g
       id="g240" /><g
       id="g242" /><g
       id="g244" /><g
       id="g246" /><g
       id="g248"><path
         d="m 76.47,35.89 v 2.74"
         style="fill:none;stroke:#333333;stroke-width:1.07000005;stroke-linecap:butt;stroke-linejoin:round;stroke-miterlimit:10;stroke-dasharray:none;stroke-opacity:1"
         id="path250"
         inkscape:connector-curvature="0" /><path
         d="m 160.2,35.89 v 2.74"
         style="fill:none;stroke:#333333;stroke-width:1.07000005;stroke-linecap:butt;stroke-linejoin:round;stroke-miterlimit:10;stroke-dasharray:none;stroke-opacity:1"
         id="path252"
         inkscape:connector-curvature="0" /><path
         d="m 243.94,35.89 v 2.74"
         style="fill:none;stroke:#333333;stroke-width:1.07000005;stroke-linecap:butt;stroke-linejoin:round;stroke-miterlimit:10;stroke-dasharray:none;stroke-opacity:1"
         id="path254"
         inkscape:connector-curvature="0" /><path
         d="m 327.67,35.89 v 2.74"
         style="fill:none;stroke:#333333;stroke-width:1.07000005;stroke-linecap:butt;stroke-linejoin:round;stroke-miterlimit:10;stroke-dasharray:none;stroke-opacity:1"
         id="path256"
         inkscape:connector-curvature="0" /><path
         d="m 411.41,35.89 v 2.74"
         style="fill:none;stroke:#333333;stroke-width:1.07000005;stroke-linecap:butt;stroke-linejoin:round;stroke-miterlimit:10;stroke-dasharray:none;stroke-opacity:1"
         id="path258"
         inkscape:connector-curvature="0" /></g><g
       id="g260" /><g
       id="g262"><text
         transform="matrix(1,0,0,-1,72.57,23.65)"
         style="font-variant:normal;font-weight:normal;font-size:14px;font-family:Helvetica;-inkscape-font-specification:Helvetica;writing-mode:lr-tb;fill:#4d4d4d;fill-opacity:1;fill-rule:nonzero;stroke:none"
         id="text266"><tspan
           x="0"
           y="0"
           id="tspan264">0</tspan></text>
<text
         transform="matrix(1,0,0,-1,152.42,23.65)"
         style="font-variant:normal;font-weight:normal;font-size:14px;font-family:Helvetica;-inkscape-font-specification:Helvetica;writing-mode:lr-tb;fill:#4d4d4d;fill-opacity:1;fill-rule:nonzero;stroke:none"
         id="text270"><tspan
           x="0 7.7839999"
           y="0"
           sodipodi:role="line"
           id="tspan268">25</tspan></text>
<text
         transform="matrix(1,0,0,-1,236.15,23.65)"
         style="font-variant:normal;font-weight:normal;font-size:14px;font-family:Helvetica;-inkscape-font-specification:Helvetica;writing-mode:lr-tb;fill:#4d4d4d;fill-opacity:1;fill-rule:nonzero;stroke:none"
         id="text274"><tspan
           x="0 7.7839999"
           y="0"
           sodipodi:role="line"
           id="tspan272">50</tspan></text>
<text
         transform="matrix(1,0,0,-1,319.89,23.65)"
         style="font-variant:normal;font-weight:normal;font-size:14px;font-family:Helvetica;-inkscape-font-specification:Helvetica;writing-mode:lr-tb;fill:#4d4d4d;fill-opacity:1;fill-rule:nonzero;stroke:none"
         id="text278"><tspan
           x="0 7.7839999"
           y="0"
           sodipodi:role="line"
           id="tspan276">75</tspan></text>
<text
         transform="matrix(1,0,0,-1,399.74,23.65)"
         style="font-variant:normal;font-weight:normal;font-size:14px;font-family:Helvetica;-inkscape-font-specification:Helvetica;writing-mode:lr-tb;fill:#4d4d4d;fill-opacity:1;fill-rule:nonzero;stroke:none"
         id="text282"><tspan
           x="0 7.7839999 15.568"
           y="0"
           sodipodi:role="line"
           id="tspan280">100</tspan></text>
</g><g
       id="g284" /><g
       id="g286" /><g
       id="g288" /><g
       id="g290" /><g
       id="g292" /><g
       id="g294"><text
         transform="matrix(1,0,0,-1,175.54,8.12)"
         style="font-variant:normal;font-weight:normal;font-size:14px;font-family:Helvetica;-inkscape-font-specification:Helvetica;writing-mode:lr-tb;fill:#000000;fill-opacity:1;fill-rule:nonzero;stroke:none"
         id="text298"><tspan
           x="0 7 14.784 22.568001 30.351999 38.136002 45.919998 49.812 52.919998 60.703999 64.596001 69.117996 76.902 84.685997 87.793999 95.578003 102.578 106.47 111.132 115.794 120.456 124.348"
           y="0"
           sodipodi:role="line"
           id="tspan296">change in radius (r) %</tspan></text>
</g><g
       id="g300" /><g
       id="g302"><text
         transform="matrix(0,1,1,0,15.53,184.29)"
         style="font-variant:normal;font-weight:normal;font-size:14px;font-family:Helvetica;-inkscape-font-specification:Helvetica;writing-mode:lr-tb;fill:#000000;fill-opacity:1;fill-rule:nonzero;stroke:none"
         id="text306"><tspan
           x="0 7 14.784 22.568001 30.351999 38.136002 45.919998 49.812 52.919998 60.703999 64.596001 72.379997 80.164001 84.056 87.164001 94.947998 101.948 105.84 108.948 116.732 124.516 128.408 133.07001 145.51601"
           y="0"
           sodipodi:role="line"
           id="tspan304">change in deflection (%)</tspan></text>
</g><g
       id="g308" /><g
       id="g310" /><g
       id="g312" /><g
       id="g314" /><g
       id="g316" /><g
       id="g318" /><g
       id="g320" /><g
       id="g322"><path
         d="m 439.5,204.4 h 59.02 V 314.36 H 439.5 Z"
         style="fill:#ffffff;fill-opacity:1;fill-rule:nonzero;stroke:none"
         id="path324"
         inkscape:connector-curvature="0" /></g><g
       id="g326" /><g
       id="g328"><text
         transform="matrix(1,0,0,-1,445.17,300.79)"
         style="font-variant:normal;font-weight:normal;font-size:11px;font-family:Helvetica;-inkscape-font-specification:Helvetica;writing-mode:lr-tb;fill:#000000;fill-opacity:1;fill-rule:nonzero;stroke:none"
         id="text332"><tspan
           x="0 6.7210002 12.837 18.952999 24.452999 27.511 29.952999 36.069 42.185001"
           y="0"
           sodipodi:role="line"
           id="tspan330">Functions</tspan></text>
</g><g
       id="g334" /><g
       id="g336"><path
         d="m 445.17,279.19 h 17.28 v 17.28 h -17.28 z"
         style="fill:#ffffff;fill-opacity:1;fill-rule:nonzero;stroke:none"
         id="path338"
         inkscape:connector-curvature="0" /></g><g
       id="g340" /><g
       id="g342"><path
         d="m 446.89,287.83 h 13.83"
         style="fill:none;stroke:#000000;stroke-width:2.13000011;stroke-linecap:butt;stroke-linejoin:round;stroke-miterlimit:10;stroke-dasharray:8.54, 8.54;stroke-dashoffset:0;stroke-opacity:1"
         id="path344"
         inkscape:connector-curvature="0" /></g><g
       id="g346" /><g
       id="g348"><path
         d="m 446.89,287.83 h 13.83"
         style="fill:none;stroke:#000000;stroke-width:2.13000011;stroke-linecap:butt;stroke-linejoin:round;stroke-miterlimit:10;stroke-dasharray:2.13, 6.4, 8.54, 6.4;stroke-dashoffset:0;stroke-opacity:1"
         id="path350"
         inkscape:connector-curvature="0" /></g><g
       id="g352" /><g
       id="g354"><path
         d="m 446.89,287.83 h 13.83"
         style="fill:none;stroke:#000000;stroke-width:1.07000005;stroke-linecap:butt;stroke-linejoin:round;stroke-miterlimit:10;stroke-dasharray:none;stroke-opacity:1"
         id="path356"
         inkscape:connector-curvature="0" /></g><g
       id="g358" /><g
       id="g360"><path
         d="m 446.89,287.83 h 13.83"
         style="fill:none;stroke:#000000;stroke-width:2.13000011;stroke-linecap:butt;stroke-linejoin:round;stroke-miterlimit:10;stroke-dasharray:14.94, 6.4;stroke-dashoffset:0;stroke-opacity:1"
         id="path362"
         inkscape:connector-curvature="0" /></g><g
       id="g364" /><g
       id="g366"><path
         d="m 446.89,287.83 h 13.83"
         style="fill:none;stroke:#000000;stroke-width:1.07000005;stroke-linecap:butt;stroke-linejoin:round;stroke-miterlimit:10;stroke-dasharray:4.27, 4.27;stroke-dashoffset:0;stroke-opacity:1"
         id="path368"
         inkscape:connector-curvature="0" /></g><g
       id="g370" /><g
       id="g372"><path
         d="m 445.17,261.91 h 17.28 v 17.28 h -17.28 z"
         style="fill:#ffffff;fill-opacity:1;fill-rule:nonzero;stroke:none"
         id="path374"
         inkscape:connector-curvature="0" /></g><g
       id="g376" /><g
       id="g378"><path
         d="m 446.89,270.55 h 13.83"
         style="fill:none;stroke:#ff0000;stroke-width:2.13000011;stroke-linecap:butt;stroke-linejoin:round;stroke-miterlimit:10;stroke-dasharray:8.54, 8.54;stroke-dashoffset:0;stroke-opacity:1"
         id="path380"
         inkscape:connector-curvature="0" /></g><g
       id="g382" /><g
       id="g384"><path
         d="m 446.89,270.55 h 13.83"
         style="fill:none;stroke:#ff0000;stroke-width:2.13000011;stroke-linecap:butt;stroke-linejoin:round;stroke-miterlimit:10;stroke-dasharray:2.13, 6.4, 8.54, 6.4;stroke-dashoffset:0;stroke-opacity:1"
         id="path386"
         inkscape:connector-curvature="0" /></g><g
       id="g388" /><g
       id="g390"><path
         d="m 446.89,270.55 h 13.83"
         style="fill:none;stroke:#ff0000;stroke-width:1.07000005;stroke-linecap:butt;stroke-linejoin:round;stroke-miterlimit:10;stroke-dasharray:none;stroke-opacity:1"
         id="path392"
         inkscape:connector-curvature="0" /></g><g
       id="g394" /><g
       id="g396"><path
         d="m 446.89,270.55 h 13.83"
         style="fill:none;stroke:#ff0000;stroke-width:2.13000011;stroke-linecap:butt;stroke-linejoin:round;stroke-miterlimit:10;stroke-dasharray:14.94, 6.4;stroke-dashoffset:0;stroke-opacity:1"
         id="path398"
         inkscape:connector-curvature="0" /></g><g
       id="g400" /><g
       id="g402"><path
         d="m 446.89,270.55 h 13.83"
         style="fill:none;stroke:#ff0000;stroke-width:1.07000005;stroke-linecap:butt;stroke-linejoin:round;stroke-miterlimit:10;stroke-dasharray:4.27, 4.27;stroke-dashoffset:0;stroke-opacity:1"
         id="path404"
         inkscape:connector-curvature="0" /></g><g
       id="g406" /><g
       id="g408"><path
         d="m 445.17,244.63 h 17.28 v 17.28 h -17.28 z"
         style="fill:#ffffff;fill-opacity:1;fill-rule:nonzero;stroke:none"
         id="path410"
         inkscape:connector-curvature="0" /></g><g
       id="g412" /><g
       id="g414"><path
         d="m 446.89,253.27 h 13.83"
         style="fill:none;stroke:#ffa500;stroke-width:2.13000011;stroke-linecap:butt;stroke-linejoin:round;stroke-miterlimit:10;stroke-dasharray:8.54, 8.54;stroke-dashoffset:0;stroke-opacity:1"
         id="path416"
         inkscape:connector-curvature="0" /></g><g
       id="g418" /><g
       id="g420"><path
         d="m 446.89,253.27 h 13.83"
         style="fill:none;stroke:#ffa500;stroke-width:2.13000011;stroke-linecap:butt;stroke-linejoin:round;stroke-miterlimit:10;stroke-dasharray:2.13, 6.4, 8.54, 6.4;stroke-dashoffset:0;stroke-opacity:1"
         id="path422"
         inkscape:connector-curvature="0" /></g><g
       id="g424" /><g
       id="g426"><path
         d="m 446.89,253.27 h 13.83"
         style="fill:none;stroke:#ffa500;stroke-width:1.07000005;stroke-linecap:butt;stroke-linejoin:round;stroke-miterlimit:10;stroke-dasharray:none;stroke-opacity:1"
         id="path428"
         inkscape:connector-curvature="0" /></g><g
       id="g430" /><g
       id="g432"><path
         d="m 446.89,253.27 h 13.83"
         style="fill:none;stroke:#ffa500;stroke-width:2.13000011;stroke-linecap:butt;stroke-linejoin:round;stroke-miterlimit:10;stroke-dasharray:14.94, 6.4;stroke-dashoffset:0;stroke-opacity:1"
         id="path434"
         inkscape:connector-curvature="0" /></g><g
       id="g436" /><g
       id="g438"><path
         d="m 446.89,253.27 h 13.83"
         style="fill:none;stroke:#ffa500;stroke-width:1.07000005;stroke-linecap:butt;stroke-linejoin:round;stroke-miterlimit:10;stroke-dasharray:4.27, 4.27;stroke-dashoffset:0;stroke-opacity:1"
         id="path440"
         inkscape:connector-curvature="0" /></g><g
       id="g442" /><g
       id="g444"><path
         d="m 445.17,227.35 h 17.28 v 17.28 h -17.28 z"
         style="fill:#ffffff;fill-opacity:1;fill-rule:nonzero;stroke:none"
         id="path446"
         inkscape:connector-curvature="0" /></g><g
       id="g448" /><g
       id="g450"><path
         d="m 446.89,235.99 h 13.83"
         style="fill:none;stroke:#0000ff;stroke-width:2.13000011;stroke-linecap:butt;stroke-linejoin:round;stroke-miterlimit:10;stroke-dasharray:8.54, 8.54;stroke-dashoffset:0;stroke-opacity:1"
         id="path452"
         inkscape:connector-curvature="0" /></g><g
       id="g454" /><g
       id="g456"><path
         d="m 446.89,235.99 h 13.83"
         style="fill:none;stroke:#0000ff;stroke-width:2.13000011;stroke-linecap:butt;stroke-linejoin:round;stroke-miterlimit:10;stroke-dasharray:2.13, 6.4, 8.54, 6.4;stroke-dashoffset:0;stroke-opacity:1"
         id="path458"
         inkscape:connector-curvature="0" /></g><g
       id="g460" /><g
       id="g462"><path
         d="m 446.89,235.99 h 13.83"
         style="fill:none;stroke:#0000ff;stroke-width:1.07000005;stroke-linecap:butt;stroke-linejoin:round;stroke-miterlimit:10;stroke-dasharray:none;stroke-opacity:1"
         id="path464"
         inkscape:connector-curvature="0" /></g><g
       id="g466" /><g
       id="g468"><path
         d="m 446.89,235.99 h 13.83"
         style="fill:none;stroke:#0000ff;stroke-width:2.13000011;stroke-linecap:butt;stroke-linejoin:round;stroke-miterlimit:10;stroke-dasharray:14.94, 6.4;stroke-dashoffset:0;stroke-opacity:1"
         id="path470"
         inkscape:connector-curvature="0" /></g><g
       id="g472" /><g
       id="g474"><path
         d="m 446.89,235.99 h 13.83"
         style="fill:none;stroke:#0000ff;stroke-width:1.07000005;stroke-linecap:butt;stroke-linejoin:round;stroke-miterlimit:10;stroke-dasharray:4.27, 4.27;stroke-dashoffset:0;stroke-opacity:1"
         id="path476"
         inkscape:connector-curvature="0" /></g><g
       id="g478" /><g
       id="g480"><path
         d="m 445.17,210.07 h 17.28 v 17.28 h -17.28 z"
         style="fill:#ffffff;fill-opacity:1;fill-rule:nonzero;stroke:none"
         id="path482"
         inkscape:connector-curvature="0" /></g><g
       id="g484" /><g
       id="g486"><path
         d="m 446.89,218.71 h 13.83"
         style="fill:none;stroke:#01ff00;stroke-width:2.13000011;stroke-linecap:butt;stroke-linejoin:round;stroke-miterlimit:10;stroke-dasharray:8.54, 8.54;stroke-dashoffset:0;stroke-opacity:1"
         id="path488"
         inkscape:connector-curvature="0" /></g><g
       id="g490" /><g
       id="g492"><path
         d="m 446.89,218.71 h 13.83"
         style="fill:none;stroke:#01ff00;stroke-width:2.13000011;stroke-linecap:butt;stroke-linejoin:round;stroke-miterlimit:10;stroke-dasharray:2.13, 6.4, 8.54, 6.4;stroke-dashoffset:0;stroke-opacity:1"
         id="path494"
         inkscape:connector-curvature="0" /></g><g
       id="g496" /><g
       id="g498"><path
         d="m 446.89,218.71 h 13.83"
         style="fill:none;stroke:#01ff00;stroke-width:1.07000005;stroke-linecap:butt;stroke-linejoin:round;stroke-miterlimit:10;stroke-dasharray:none;stroke-opacity:1"
         id="path500"
         inkscape:connector-curvature="0" /></g><g
       id="g502" /><g
       id="g504"><path
         d="m 446.89,218.71 h 13.83"
         style="fill:none;stroke:#01ff00;stroke-width:2.13000011;stroke-linecap:butt;stroke-linejoin:round;stroke-miterlimit:10;stroke-dasharray:14.94, 6.4;stroke-dashoffset:0;stroke-opacity:1"
         id="path506"
         inkscape:connector-curvature="0" /></g><g
       id="g508" /><g
       id="g510"><path
         d="m 446.89,218.71 h 13.83"
         style="fill:none;stroke:#01ff00;stroke-width:1.07000005;stroke-linecap:butt;stroke-linejoin:round;stroke-miterlimit:10;stroke-dasharray:4.27, 4.27;stroke-dashoffset:0;stroke-opacity:1"
         id="path512"
         inkscape:connector-curvature="0" /></g><g
       id="g514" /><g
       id="g516"><text
         transform="matrix(1,0,0,-1,464.61,284.6)"
         style="font-variant:normal;font-weight:normal;font-size:9px;font-family:Helvetica;-inkscape-font-specification:Helvetica;writing-mode:lr-tb;fill:#000000;fill-opacity:1;fill-rule:nonzero;stroke:none"
         id="text520"><tspan
           x="0"
           y="0"
           id="tspan518">x</tspan></text>
</g><g
       id="g522" /><g
       id="g524"><text
         transform="matrix(1,0,0,-1,464.61,267.32)"
         style="font-variant:normal;font-weight:normal;font-size:9px;font-family:Helvetica;-inkscape-font-specification:Helvetica;writing-mode:lr-tb;fill:#000000;fill-opacity:1;fill-rule:nonzero;stroke:none"
         id="text528"><tspan
           x="0 4.5 8.7209997"
           y="0"
           sodipodi:role="line"
           id="tspan526">x^2</tspan></text>
</g><g
       id="g530" /><g
       id="g532"><text
         transform="matrix(1,0,0,-1,464.61,250.04)"
         style="font-variant:normal;font-weight:normal;font-size:9px;font-family:Helvetica;-inkscape-font-specification:Helvetica;writing-mode:lr-tb;fill:#000000;fill-opacity:1;fill-rule:nonzero;stroke:none"
         id="text536"><tspan
           x="0 4.5 8.7209997 13.725 16.226999"
           y="0"
           sodipodi:role="line"
           id="tspan534">x^2.5</tspan></text>
</g><g
       id="g538" /><g
       id="g540"><text
         transform="matrix(1,0,0,-1,464.61,232.76)"
         style="font-variant:normal;font-weight:normal;font-size:9px;font-family:Helvetica;-inkscape-font-specification:Helvetica;writing-mode:lr-tb;fill:#000000;fill-opacity:1;fill-rule:nonzero;stroke:none"
         id="text544"><tspan
           x="0 4.5 8.7209997"
           y="0"
           sodipodi:role="line"
           id="tspan542">x^3</tspan></text>
</g><g
       id="g546" /><g
       id="g548"><text
         transform="matrix(1,0,0,-1,464.61,215.48)"
         style="font-variant:normal;font-weight:normal;font-size:9px;font-family:Helvetica;-inkscape-font-specification:Helvetica;writing-mode:lr-tb;fill:#000000;fill-opacity:1;fill-rule:nonzero;stroke:none"
         id="text552"><tspan
           x="0 4.5 8.7209997 13.725 16.226999"
           y="0"
           sodipodi:role="line"
           id="tspan550">x^3.5</tspan></text>
</g><g
       id="g554" /><g
       id="g556" /><g
       id="g558" /><g
       id="g560" /><g
       id="g562" /><g
       id="g564"><text
         transform="matrix(1,0,0,-1,59.72,489.19)"
         style="font-variant:normal;font-weight:normal;font-size:13px;font-family:Helvetica;-inkscape-font-specification:Helvetica;writing-mode:lr-tb;fill:#000000;fill-opacity:1;fill-rule:nonzero;stroke:none"
         id="text568"><tspan
           x="0 8.6709995 12.285 15.509 22.737 29.237 32.851002 36.465 43.693001 47.306999 50.921001 57.421001 60.306999 66.612 73.839996 77.454002 84.681999 91.910004 95.524002 99.138 106.366 113.594 117.208 124.436 127.322 133.82201 141.05 143.936 151.164 157.664 164.892 175.72099 182.94901 190.177 193.791 197.405 204.633 208.24699 211.86099 219.089 226.317 229.203 235.703 238.589 245.089 248.703 252.317 255.203 262.431 269.659"
           y="0"
           sodipodi:role="line"
           id="tspan566">Effect of size on the displacement of pelvic floor</tspan></text>
</g><g
       id="g570" /><g
       id="g572" /><g
       id="g574" /><g
       id="g576" /><text
       xml:space="preserve"
       style="font-style:normal;font-variant:normal;font-weight:normal;font-stretch:normal;font-size:16px;line-height:30px;font-family:sans-serif;-inkscape-font-specification:sans-serif;text-align:start;letter-spacing:0px;word-spacing:0px;text-anchor:start;fill:none;stroke:#000000;stroke-width:0.75px;stroke-linecap:butt;stroke-linejoin:miter;stroke-opacity:1"
       x="449.095"
       y="133.6636"
       id="text1385"
       transform="matrix(0.48109393,0.87666905,0.87666905,-0.48109393,0,0)"><tspan
         sodipodi:role="line"
         id="tspan1383"
         x="449.095"
         y="133.6636"
         style="fill:#008000;stroke:#008000;stroke-width:0.75px">only r changes</tspan></text>
<text
       xml:space="preserve"
       style="font-style:normal;font-variant:normal;font-weight:normal;font-stretch:normal;font-size:16px;line-height:30px;font-family:sans-serif;-inkscape-font-specification:sans-serif;text-align:start;letter-spacing:0px;word-spacing:0px;text-anchor:start;fill:none;stroke:none;stroke-width:0.75px;stroke-linecap:butt;stroke-linejoin:miter;stroke-opacity:1;"
       x="346.42416"
       y="98.745537"
       id="text1389"
       transform="matrix(0.63767037,0.77030935,0.77030935,-0.63767037,0,0)"><tspan
         sodipodi:role="line"
         id="tspan1387"
         x="346.42416"
         y="98.745537"
         style="fill:#0000ff;stroke:none;stroke-width:0.75px;">h = f(r), P is constant</tspan></text>
<text
       xml:space="preserve"
       style="font-style:normal;font-variant:normal;font-weight:normal;font-stretch:normal;font-size:15.99999905px;line-height:30px;font-family:sans-serif;-inkscape-font-specification:sans-serif;text-align:start;letter-spacing:0px;word-spacing:0px;text-anchor:start;fill:#ffcc00;stroke:none;stroke-width:0.75px;stroke-linecap:butt;stroke-linejoin:miter;stroke-opacity:1;"
       x="268.42773"
       y="28.986942"
       id="text1389-3"
       transform="matrix(0.83032983,0.55727227,0.55727227,-0.83032983,0,0)"><tspan
         sodipodi:role="line"
         id="tspan1387-6"
         x="268.42773"
         y="28.986942"
         style="fill:#ffcc00;stroke:none;stroke-width:0.75px">h = f(r^2), P is constant</tspan></text>
<text
       xml:space="preserve"
       style="font-style:normal;font-variant:normal;font-weight:normal;font-stretch:normal;font-size:15.99999905px;line-height:30px;font-family:sans-serif;-inkscape-font-specification:sans-serif;text-align:start;letter-spacing:0px;word-spacing:0px;text-anchor:start;fill:#ff0000;stroke:none;stroke-width:0.75px;stroke-linecap:butt;stroke-linejoin:miter;stroke-opacity:1;"
       x="258.63562"
       y="-6.3118496"
       id="text1389-3-7"
       transform="matrix(0.94464094,0.32810593,0.32810593,-0.94464094,0,0)"><tspan
         sodipodi:role="line"
         id="tspan1387-6-5"
         x="258.63562"
         y="-6.3118496"
         style="fill:#ff0000;stroke:none;stroke-width:0.75px;">h = f(r), P = g(1/(r^2))</tspan></text>
<text
       xml:space="preserve"
       style="font-style:normal;font-variant:normal;font-weight:normal;font-stretch:normal;font-size:15.99999905px;line-height:30px;font-family:sans-serif;-inkscape-font-specification:sans-serif;text-align:start;letter-spacing:0px;word-spacing:0px;text-anchor:start;fill:#ff0000;stroke:#ff0000;stroke-width:0.75px;stroke-linecap:butt;stroke-linejoin:miter;stroke-opacity:1"
       x="277.36539"
       y="-38.215744"
       id="text1389-3-7-3"
       transform="matrix(0.9945111,0.10463117,0.10463117,-0.9945111,0,0)"
       inkscape:transform-center-x="33.568729"
       inkscape:transform-center-y="0.5473583"><tspan
         sodipodi:role="line"
         id="tspan1387-6-5-5"
         x="277.36539"
         y="-38.215744"
         style="fill:#000000;stroke:none;stroke-width:0.75px">linear reference</tspan></text>
</g></svg>